name 900006 ik
datacolumns 165
datarows 4
range 0.8083299999999997 0.8333299999999996
cursor 1.0 1.0 0.0
keys m_key
wrap
enforce_loops no
enforce_constraints no
calc_derivatives 0.008333
event_color 1.000000 0.000000 1.000000
endheader

time	calcn_r_tx	calcn_r_ty	calcn_r_tz	calcn_r_r1	calcn_r_r2	calcn_r_r3	calcn_l_tx	calcn_l_ty	calcn_l_tz	calcn_l_r1	calcn_l_r2	calcn_l_r3	pelvis_tz	pelvis_tx	pelvis_ty	pelvis_tilt	pelvis_list	pelvis_rotation	hip_flexion_r	hip_adduction_r	hip_rotation_r	knee_angle_r	ankle_angle_r	subtalar_angle_r	mtp_angle_r	hip_flexion_l	hip_adduction_l	hip_rotation_l	knee_angle_l	ankle_angle_l	subtalar_angle_l	mtp_angle_l	lumbar_extension	lumbar_bending	lumbar_rotation	ground_force_px	ground_force_py	ground_force_pz	ground_force_vx	ground_force_vy	ground_force_vz	ground_force_px	ground_force_py	ground_force_pz	ground_force_vx	ground_force_vy	ground_force_vz	ground_torque_x	ground_torque_y	ground_torque_z	ground_torque_x	ground_torque_y	ground_torque_z	 midhip_px	 midhip_py	 midhip_pz	 hip_r_px	 hip_r_py	 hip_r_pz	 hip_l_px	 hip_l_py	 hip_l_pz	 knee_r_px	 knee_r_py	 knee_r_pz	 knee_l_px	 knee_l_py	 knee_l_pz	 ankle_r_px	 ankle_r_py	 ankle_r_pz	 ankle_l_px	 ankle_l_py	 ankle_l_pz	 midasis_px	 midasis_py	 midasis_pz	 asis_r_px	 asis_r_py	 asis_r_pz	 asis_l_px	 asis_l_py	 asis_l_pz	 psis_r_px	 psis_r_py	 psis_r_pz	 psis_l_px	 psis_l_py	 psis_l_pz	 epicondLat_r_px	 epicondLat_r_py	 epicondLat_r_pz	 epicondLat_l_px	 epicondLat_l_py	 epicondLat_l_pz	 epicondMed_r_px	 epicondMed_r_py	 epicondMed_r_pz	 epicondMed_l_px	 epicondMed_l_py	 epicondMed_l_pz	 malleolusLat_r_px	 malleolusLat_r_py	 malleolusLat_r_pz	 malleolusLat_l_px	 malleolusLat_l_py	 malleolusLat_l_pz	 malleolusMedv_r_px	 malleolusMedv_r_py	 malleolusMedv_r_pz	 malleolusMedv_l_px	 malleolusMedv_l_py	 malleolusMedv_l_pz	 sternalnotch_px	 sternalnotch_py	 sternalnotch_pz	 xyphoidprocess_px	 xyphoidprocess_py	 xyphoidprocess_pz	 neck_px	 neck_py	 neck_pz	 toe_r_px	 toe_r_py	 toe_r_pz	 toe_l_px	 toe_l_py	 toe_l_pz	 thighwand_r_px	 thighwand_r_py	 thighwand_r_pz	 thighwand_l_px	 thighwand_l_py	 thighwand_l_pz	 upperleg1_r_px	 upperleg1_r_py	 upperleg1_r_pz	 upperleg1_l_px	 upperleg1_l_py	 upperleg1_l_pz	 upperleg2_r_px	 upperleg2_r_py	 upperleg2_r_pz	 upperleg2_l_px	 upperleg2_l_py	 upperleg2_l_pz	 shankwand_r_px	 shankwand_r_py	 shankwand_r_pz	 shankwand_l_px	 shankwand_l_py	 shankwand_l_pz	 lowerleg1_r_px	 lowerleg1_r_py	 lowerleg1_r_pz	 lowerleg1_l_px	 lowerleg1_l_py	 lowerleg1_l_pz	 subclavicle_r_px	 subclavicle_r_py	 subclavicle_r_pz	 subclavicle_l_px	 subclavicle_l_py	 subclavicle_l_pz	
      0.8083299999999997	     -1.6251056586032060	      0.0369732325942398	      0.3416842960184035	      1.9703192932316589	     -0.7809462969175912	      0.9611589025202910	     -2.0694291326777274	      0.1071308586471630	      0.2089631521047491	     -0.8076070945509288	      1.8762973484266734	    -27.0655067136343630	      0.2724070427744142	     -1.6641133602480984	      0.8132831272092673	      2.0979087638004166	     -0.7910427901904867	     -2.0222160247335164	     21.4562743244194460	      2.7416490826742561	     -0.0832267716906430	    -21.2914849572896440	     -1.4005613588154431	     -0.0000000000000000	      0.0000000000000000	    -14.6173926418882640	      1.3440499863875572	     -5.7126308510146329	    -23.8472903904723310	      9.5637690745233179	      0.0000000000000000	      0.0000000000000000	     -3.2785911209910870	      5.8683244226591560	     -2.7895623586182241	     -1.5861944848457146	      0.0000000000000000	      0.3311893547288979	    -37.5284607305537530	    254.0966986142667000	     -3.9190828239118436	     -1.9165723373551879	      0.0000000000000000	      0.2151610582198023	     42.0236424312447810	    220.1978168965630700	      0.9184295885544227	      0.0000000000000000	     -0.4248900787618256	      0.0000000000000000	      0.0000000000000000	     -0.1477340605937798	      0.0000000000000000	     -1.7014253590057131	      0.7535232169201537	      0.2669152258473458	     -1.7113115282294868	      0.7520774380081223	      0.3234670041627992	     -1.6915392527746049	      0.7549695269755354	      0.2103633402836327	     -1.6212477704483299	      0.4134218082328043	      0.3383694641652458	     -1.8221956485906481	      0.4257957301804471	      0.2097881628176323	     -1.5762104799990910	      0.0647248087751398	      0.3318630702200036	     -2.0165006753094294	      0.1130992036192806	      0.2044450119526022	     -1.6677739114527055	      0.8264630977701419	      0.2740677964334538	     -1.6716332359541166	      0.8297944139211965	      0.3839128768493252	     -1.6639148932163199	      0.8231312166608514	      0.1642229500656228	     -1.8509964377021377	      0.8562420781471153	      0.3024125222238481	     -1.8428037520004679	      0.8534701356184836	      0.2531954773982544	     -1.5958821739181972	      0.4220507155574252	      0.3980348566907055	     -1.8107475358782614	      0.4053986021375954	      0.1516726817340238	     -1.6089577925808578	      0.4190050374655983	      0.2740052857347384	     -1.7969031908436270	      0.4102159417608389	      0.2767014960060399	     -1.5828948136897956	      0.0633796053898979	      0.3687394768856017	     -2.0218521127969815	      0.1173154758994811	      0.1685844461625818	     -1.5706365639981232	      0.0599673763381605	      0.2987959367206050	     -2.0208964636198585	      0.1159958475148661	      0.2379032943809718	     -1.6841636814108882	      1.1780895476523450	      0.2729731087794739	     -1.6729212757275589	      1.0769176852267388	      0.2640273433997118	     -1.7940439753157957	      1.2459989421225315	      0.2736806924522608	     -1.4930800197479224	      0.0501083046485772	      0.3503550937447354	     -1.9459729435621795	      0.0552621541717028	      0.2039146559671617	     -1.5313387429815790	      0.5948946743960919	      0.3659828224186887	     -1.6661670140216061	      0.5324207400527387	      0.1353523389834530	     -1.5949274185148850	      0.6107173951644818	      0.4046375038569705	     -1.6734829728917606	      0.5793753358648331	      0.2022685674330954	     -1.5846151429828967	      0.5537784966570112	      0.3979359013733958	     -1.6944234072731372	      0.5257698357171888	      0.2110426592210854	     -1.4654990143640629	      0.1945347929565430	      0.3641299073206820	     -1.9631459550358843	      0.2032677661316850	      0.0801376762676192	     -1.5388512908192757	      0.1717268199866710	      0.3429368959383102	     -1.9692696676205543	      0.1955205217979400	      0.1598646444327996	     -1.6860845043876340	      1.1742988638130611	      0.3298621839305358	     -1.6771190332595194	      1.1820820818153102	      0.2227204005993007	
      0.8166633333333330	     -1.6245666224308370	      0.0369594407731645	      0.3419872449835099	      1.9787313474581778	     -0.7564676927077783	      0.5996295601598085	     -2.0653008621550066	      0.1123458239066461	      0.2087251977801672	     -0.8881022788638778	      1.7998730690536056	    -29.2293272583173260	      0.2732646726639887	     -1.6572709336447273	      0.8140718524355207	      2.1780447973788086	     -0.9166373287181591	     -2.0217577693014421	     20.9447154444649080	      2.9156661324038478	     -0.0528262334955969	    -21.4817456333848330	     -1.1376745363968412	      0.0000000000000000	      0.0000000000000000	    -14.3528859008990090	      1.1560715721494363	     -5.4130653637909454	    -25.1087434495635090	      8.2772252258382206	      0.0000000000000000	      0.0000000000000000	     -3.2313599987084132	      5.9318792814373680	     -2.6920948604354313	     -1.5832005945796992	      0.0000000000000000	      0.3316509672674259	    -40.4336262651884650	    276.9321412766923300	     -5.4532718825080204	     -1.9157790140414885	      0.0000000000000000	      0.2157797778267872	     37.9799806032839560	    192.5485123620538000	     -0.4953022787618543	      0.0000000000000000	     -0.4186962923639293	      0.0000000000000000	      0.0000000000000000	     -0.0951801440586001	      0.0000000000000000	     -1.6945725749969180	      0.7543397452948945	      0.2684293365856229	     -1.7044625202625923	      0.7528621851130106	      0.3249795347300322	     -1.6846827653172169	      0.7558176754942025	      0.2118789836683004	     -1.6167377320433192	      0.4135981650933408	      0.3392001901688047	     -1.8121748555232093	      0.4249651697412397	      0.2099750405523881	     -1.5757213445664147	      0.0645899699906732	      0.3317171803982637	     -2.0124508711797802	      0.1164409867920868	      0.2043870782969639	     -1.6610046580408122	      0.8272829901831820	      0.2756047643193090	     -1.6648732730894997	      0.8305950326199451	      0.3855500369246268	     -1.6571363701818422	      0.8239705157247824	      0.1656596239805850	     -1.8438805628859316	      0.8568438371562868	      0.3040445140356520	     -1.8360076485308676	      0.8539952551024622	      0.2546071958826459	     -1.5914800592430403	      0.4219057338918891	      0.3988245438007838	     -1.8017718725972824	      0.4053381345672340	      0.1517786401057147	     -1.6043864658195317	      0.4190464955884232	      0.2750910746020688	     -1.7877108190829538	      0.4091947532147944	      0.2765709674070458	     -1.5822440665371533	      0.0632264335912707	      0.3686212701273604	     -2.0179037414870273	      0.1208937707037080	      0.1685703983342774	     -1.5699557205423580	      0.0595272261486143	      0.2987065324549121	     -2.0166553506706260	      0.1195132854321670	      0.2378771303876642	     -1.6781295150738356	      1.1790223748315347	      0.2747121195193733	     -1.6666836863148935	      1.0778848945589268	      0.2656378961694593	     -1.7882108440469111	      1.2467299935143477	      0.2756510318965371	     -1.4926798242324062	      0.0493616305466441	      0.3502866564646138	     -1.9437088429829585	      0.0557501369955773	      0.2041188717277821	     -1.5252997385672731	      0.5943761936257087	      0.3670987118850660	     -1.6575364736349938	      0.5332884054999736	      0.1365391270779959	     -1.5887571307974566	      0.6105851839930661	      0.4057066411159095	     -1.6658430577872574	      0.5802230472096177	      0.2036856620418069	     -1.5789583083357284	      0.5536886514980718	      0.3990294972060375	     -1.6862186097578316	      0.5262163010889659	      0.2121157227212097	     -1.4633178407732692	      0.1931057954463030	      0.3638010570971136	     -1.9581054583945885	      0.2064620714338755	      0.0801068020555493	     -1.5368037412963855	      0.1708971462103415	      0.3427296007865099	     -1.9641749209615895	      0.1984692650866812	      0.1597412318251021	     -1.6799386496250710	      1.1751781280154447	      0.3314253369817753	     -1.6711867322651626	      1.1830723052468319	      0.2246276215290015	
      0.8249966666666663	     -1.6239539468371329	      0.0368458859724048	      0.3415635232468308	      2.1257168251116396	     -0.8269114088473375	      0.2902358023422797	     -2.0606861226553903	      0.1175303099435392	      0.2084330707509749	     -0.8248634587322141	      1.8177070793002212	    -31.2993815491435040	      0.2751229107351512	     -1.6508632792804112	      0.8149076094007879	      2.3009101341231237	     -0.8955966424278845	     -2.0404875627157666	     20.4145645421486710	      3.0490530914340259	     -0.0925065664887574	    -21.6431603431735340	     -0.8765232170796079	      0.0000000000000000	      0.0000000000000000	    -14.0353178582387520	      1.0076616616059884	     -5.2285725115265214	    -26.4375701216949680	      7.0611849094520061	      0.0000000000000000	      0.0000000000000000	     -3.1793065628678536	      5.9432307752192157	     -2.6478528418002960	     -1.5805596894442093	      0.0000000000000000	      0.3320014563076297	    -42.2494428931434670	    298.5034617513676400	     -6.8709686764439706	     -1.9149308901843356	      0.0000000000000000	      0.2163235186668212	     33.4819434793686740	    164.2397964876124400	     -1.5421572181753915	      0.0000000000000000	     -0.4259427358383552	      0.0000000000000000	      0.0000000000000000	     -0.0518149232764293	      0.0000000000000000	     -1.6877789218316559	      0.7551729931391498	      0.2699477652170745	     -1.6976841387680097	      0.7536335631055352	      0.3264935067052400	     -1.6778739036353085	      0.7567126581239180	      0.2134018479337635	     -1.6125572040569209	      0.4136346017927884	      0.3400251251734207	     -1.8020639712582658	      0.4243953283105665	      0.2099808705364133	     -1.5753120893722383	      0.0645034199198962	      0.3315625371412432	     -2.0078838274420141	      0.1198289827904243	      0.2043655084849586	     -1.6542711592870667	      0.8281134390586641	      0.2771867447568351	     -1.6581624436679829	      0.8313528804719551	      0.3872602444098364	     -1.6503801649350145	      0.8248737812769430	      0.1671132311849050	     -1.8368319106149555	      0.8575153632212593	      0.3056827838168208	     -1.8292587443358823	      0.8545806011675139	      0.2560594077968061	     -1.5874440300229435	      0.4216986084842453	      0.3996337927107012	     -1.7924760065051746	      0.4052860523704356	      0.1517376277111166	     -1.6000158900363690	      0.4188889783151633	      0.2763268547934948	     -1.7783822913088956	      0.4082291210292810	      0.2760744127459072	     -1.5817429259402744	      0.0631094317972146	      0.3684809346423327	     -2.0135043363596643	      0.1245526279332516	      0.1686099977661278	     -1.5693987558585467	      0.0592241031146595	      0.2985954259363030	     -2.0118312710666650	      0.1231267298086741	      0.2378971816364630	     -1.6721158300206000	      1.1800106874295386	      0.2764568867271269	     -1.6604747465310745	      1.0789039401023528	      0.2672870457291920	     -1.7823880506493597	      1.2475265379042844	      0.2775752559901895	     -1.4923636922531434	      0.0488012440246731	      0.3502017891856211	     -1.9413143941394644	      0.0561981271703808	      0.2043705458619308	     -1.5195335151941056	      0.5936820613464100	      0.3683880301126457	     -1.6487064677905963	      0.5342832108920640	      0.1374821104804963	     -1.5828798504510695	      0.6103350603479446	      0.4068321765817676	     -1.6579249072446149	      0.5810796041183016	      0.2048820969788224	     -1.5736083525138853	      0.5534389596724735	      0.4002250759188402	     -1.6777923031001378	      0.5266737896547529	      0.2129155643116709	     -1.4614168990836354	      0.1917452362447064	      0.3636804562189637	     -1.9527914678353990	      0.2098329963214282	      0.0800992500009141	     -1.5349973001676980	      0.1701533043438219	      0.3426576351650430	     -1.9586884487282963	      0.2015748325002137	      0.1595726412887646	     -1.6738585442412146	      1.1761267905757711	      0.3329879410868716	     -1.6652349413470833	      1.1841048210087446	      0.2265510173823114	
      0.8333299999999996	     -1.6241196080601710	      0.0366756193873489	      0.3417414056364717	      2.1620491760228631	     -0.8479457501583162	      0.1077156124438889	     -2.0559129982633682	      0.1235357446595410	      0.2083747156586133	     -0.7417256488206195	      2.0514871771852028	    -34.1100477147665440	      0.2762898449899218	     -1.6440326161698677	      0.8157486626615600	      2.3484226707488691	     -1.0634620296045296	     -1.9436876408190635	     19.7919568404436110	      3.2717976897780723	     -0.1856094292587759	    -21.6916666665252580	     -0.4249518422777138	     -0.0000000000000000	      0.0000000000000000	    -13.5960168131937670	      0.6570019298462488	     -5.0514038888552060	    -27.8961068166765750	      5.1681356812999724	      0.0000000000000000	      0.0000000000000000	     -3.1190687109031576	      5.9160169729687366	     -2.6468683090880067	     -1.5783144433847258	      0.0000000000000000	      0.3323318995770321	    -43.1299599565353300	    317.8955996939082000	     -8.0824743628610598	     -1.9140775870612421	      0.0000000000000000	      0.2167837431903107	     28.7816301122369790	    136.0161317578210300	     -2.1417712608850770	      0.0000000000000000	     -0.4549328539075438	      0.0000000000000000	      0.0000000000000000	     -0.0104138234592949	      0.0000000000000000	     -1.6810604871256809	      0.7560149175885185	      0.2714790896955133	     -1.6909870581523896	      0.7543973432982019	      0.3280188447064068	     -1.6711341653251732	      0.7576326511909469	      0.2149391766190542	     -1.6086906854760010	      0.4135935339268773	      0.3408273952008132	     -1.7919479713268778	      0.4240486252773404	      0.2098250399091128	     -1.5749621960656850	      0.0644554990448416	      0.3314093861986804	     -2.0027664749233165	      0.1232242302706811	      0.2043802843245321	     -1.6475928325826723	      0.8289471827245358	      0.2788001197880035	     -1.6515130021232463	      0.8320784347513105	      0.3890130235937294	     -1.6436728607163804	      0.8258159577487140	      0.1685870565125908	     -1.8299199425015054	      0.8582473270263510	      0.3072844332705753	     -1.8225934624331552	      0.8552192326862583	      0.2575144371902515	     -1.5837362324362669	      0.4214561585893997	      0.4004445901099383	     -1.7828859663050052	      0.4052474338914948	      0.1515688130077742	     -1.5958757117077638	      0.4186251790050525	      0.2776331315032755	     -1.7689249904055286	      0.4074376306161045	      0.2754557138298663	     -1.5813664517684172	      0.0630242457716229	      0.3683302709505303	     -2.0086179138241258	      0.1282554067977449	      0.1687047925437777	     -1.5689998759970485	      0.0591015641729858	      0.2984591962006411	     -2.0063769537161709	      0.1267874681979613	      0.2379622139597784	     -1.6661530125152046	      1.1810561233794248	      0.2781914456098757	     -1.6543374221520408	      1.0799731492524440	      0.2689791172515871	     -1.7765817562035073	      1.2483910966176397	      0.2794533802224514	     -1.4921108349878001	      0.0484082155564761	      0.3500881455924667	     -1.9387683710921360	      0.0566118831745083	      0.2046545308157871	     -1.5140512476266925	      0.5928577571081164	      0.3697903184330307	     -1.6397127965097065	      0.5353999116694620	      0.1381914910797172	     -1.5772786351950789	      0.6100186573291461	      0.4079896526959249	     -1.6497445460764157	      0.5819314982225895	      0.2058301629438388	     -1.5685442544325814	      0.5530903963066802	      0.4014742817763644	     -1.6691558969186460	      0.5271752824693724	      0.2134856457355366	     -1.4597629873182374	      0.1904629424194295	      0.3637560804423212	     -1.9471763749525146	      0.2133588585353786	      0.0801369964396540	     -1.5334283798756121	      0.1695261041707565	      0.3427541164371399	     -1.9527685990697305	      0.2048043870298488	      0.1593625918436589	     -1.6678891402787690	      1.1771532765535009	      0.3345845984814831	     -1.6592805926735732	      1.1851749451628162	      0.2284248737577641	
